<svg xmlns="http://www.w3.org/2000/svg" xmlns:xlink="http://www.w3.org/1999/xlink" id="el_B9Eic5ykm" viewBox="0 0 600 600"><style>@-webkit-keyframes kf_el_VeH7uXtxCc_an_Ik9NHFSk9{0%,50%{opacity:1}41.67%,58.33%,8.33%,91.67%{opacity:.75}16.67%,33.33%,66.67%,83.33%{opacity:.5}25%,75%{opacity:.25}}@keyframes kf_el_VeH7uXtxCc_an_Ik9NHFSk9{0%,50%{opacity:1}41.67%,58.33%,8.33%,91.67%{opacity:.75}16.67%,33.33%,66.67%,83.33%{opacity:.5}25%,75%{opacity:.25}}#el_B9Eic5ykm *{-webkit-animation-duration:6s;animation-duration:6s;-webkit-animation-iteration-count:infinite;animation-iteration-count:infinite;-webkit-animation-timing-function:cubic-bezier(0,0,1,1);animation-timing-function:cubic-bezier(0,0,1,1)}#el_CNRN3bbJsj{-webkit-clip-path:url(#clip-hearts);clip-path:url(#clip-hearts)}#el_yxpBdCdu3C{fill:#fff}#el_X6k7EyS4qj{-webkit-filter:url(#Union_2);filter:url(#Union_2);-webkit-transform:matrix(1,,0,,0,,1,,0,,0);transform:matrix(1,,0,,0,,1,,0,,0)}#el_VeH7uXtxCc{fill:#df161b;-webkit-transform:translate(303.25px,197.47px);transform:translate(303.25px,197.47px);-webkit-animation-fill-mode:backwards;animation-fill-mode:backwards;opacity:1;-webkit-animation-name:kf_el_VeH7uXtxCc_an_Ik9NHFSk9;animation-name:kf_el_VeH7uXtxCc_an_Ik9NHFSk9;-webkit-animation-timing-function:cubic-bezier(0,0,1,1);animation-timing-function:cubic-bezier(0,0,1,1)}#el_3ue83xB0qB{-webkit-filter:url(#Union_1);filter:url(#Union_1);-webkit-transform:matrix(1,,0,,0,,1,,0,,0);transform:matrix(1,,0,,0,,1,,0,,0)}#el_6Fbv0qz2x7{fill:#b40408;-webkit-transform:translate(330.78px,232.04px);transform:translate(330.78px,232.04px)}#el_YeFQFHVVCv{stroke:none}#el_t8a2vHAN0V{stroke:none;fill:rgba(0,0,0,.28)}</style><defs><filter id="Union_2" width="408.751" height="378.436" x="95.249" y="113.471" filterUnits="userSpaceOnUse"><feOffset dy="3" input="SourceAlpha"/><feGaussianBlur result="blur" stdDeviation="3"/><feFlood flood-opacity=".929"/><feComposite in2="blur" operator="in"/><feComposite in="SourceGraphic"/></filter><filter id="Union_1" width="355.224" height="329.061" x="122.776" y="148.035" filterUnits="userSpaceOnUse"><feOffset dy="3" input="SourceAlpha"/><feGaussianBlur result="blur-2" stdDeviation="3"/><feFlood flood-opacity=".6"/><feComposite in2="blur-2" operator="in"/><feComposite in="SourceGraphic"/></filter><clipPath id="clip-hearts"><rect width="600" height="600"/></clipPath></defs><g id="el_CNRN3bbJsj"><rect id="el_yxpBdCdu3C" width="600" height="600"/><g id="el_X6k7EyS4qj"><path id="el_VeH7uXtxCc" d="M-156.294,129.375A116.746,116.746,0,0,1-199,38.991,116.991,116.991,0,0,1-82.009-78,116.555,116.555,0,0,1-3.738-47.962l.5-.5.134.134A116.567,116.567,0,0,1,74.759-78a116.992,116.992,0,0,1,87.322,194.851l.135.135L157.6,121.6l-.227.227L-3.235,282.435Z" data-name="Union 2"/></g><g id="el_3ue83xB0qB"><g id="el_6Fbv0qz2x7" data-name="Union 1"><path id="el_YeFQFHVVCv" d="M-162.144,100.968a100.754,100.754,0,0,1-36.855-78A100.965,100.965,0,0,1-98.035-78,100.589,100.589,0,0,1-30.486-52.077l.434-.434.116.116A100.6,100.6,0,0,1,37.258-78,100.966,100.966,0,0,1,138.224,22.965a100.576,100.576,0,0,1-25.605,67.194l.116.116-3.985,3.985-.2.2L-30.052,233.061Z"/><path id="el_t8a2vHAN0V" d="M -30.05154609680176 231.6468505859375 L 107.847412109375 93.74794006347656 C 107.913703918457 93.68180847167969 107.9750366210938 93.62047576904297 108.0422897338867 93.55302429199219 L 111.3203201293945 90.27501678466797 L 111.2433319091797 90.19802093505859 L 111.8723297119141 89.49314880371094 C 115.8183670043945 85.07106018066406 119.3896179199219 80.27389526367188 122.4868698120117 75.23489379882813 C 125.6174087524414 70.14168548583984 128.3006591796875 64.74098205566406 130.4619903564453 59.18281173706055 C 134.9487915039063 47.6445198059082 137.2237854003906 35.45910263061523 137.2237854003906 22.96502113342285 C 137.2237854003906 16.1818962097168 136.5404510498047 9.403311729431152 135.1928253173828 2.817562103271484 C 133.8795318603516 -3.600271224975586 131.9199066162109 -9.913104057312012 129.3683776855469 -15.94552135467529 C 126.8630752563477 -21.8686466217041 123.7621612548828 -27.58160400390625 120.1517868041992 -32.92568969726563 C 116.5754928588867 -38.21923065185547 112.4683685302734 -43.19710540771484 107.9444961547852 -47.72097778320313 C 103.4205780029297 -52.24489593505859 98.44270324707031 -56.35202026367188 93.14916229248047 -59.92827224731445 C 87.80507659912109 -63.53868865966797 82.0921630859375 -66.63960266113281 76.16899871826172 -69.1448974609375 C 70.13658142089844 -71.69639587402344 63.82374572753906 -73.65605926513672 57.40591049194336 -74.96935272216797 C 50.82016372680664 -76.31697845458984 44.04158020019531 -77.00031280517578 37.25845336914063 -77.00031280517578 C 24.76657867431641 -77.00031280517578 12.58141231536865 -74.724853515625 1.041453719139099 -70.23719024658203 C -4.516921043395996 -68.07564544677734 -9.91792106628418 -65.39235687255859 -15.01150417327881 -62.26189804077148 C -20.05071258544922 -59.16481399536133 -24.84792137145996 -55.5941047668457 -29.26983833312988 -51.6489372253418 L -29.97471237182617 -51.02001953125 L -30.05153656005859 -51.09683990478516 L -30.44992065429688 -50.69847869873047 L -31.15517044067383 -51.3337287902832 C -35.58742141723633 -55.32614517211914 -40.40096282958984 -58.94035339355469 -45.46208953857422 -62.0759391784668 C -50.57729721069336 -65.24501800537109 -56.00467300415039 -67.96176910400391 -61.59354782104492 -70.15068817138672 C -73.19821166992188 -74.69577026367188 -85.45875549316406 -77.00031280517578 -98.03459167480469 -77.00031280517578 C -104.8177947998047 -77.00031280517578 -111.5964202880859 -76.31697845458984 -118.1822128295898 -74.96935272216797 C -124.6000900268555 -73.65605926513672 -130.9129638671875 -71.69639587402344 -136.9453735351563 -69.1448974609375 C -142.8684997558594 -66.63960266113281 -148.5814666748047 -63.53868865966797 -153.9255523681641 -59.92827224731445 C -159.2190856933594 -56.35202026367188 -164.1969146728516 -52.24489593505859 -168.7207946777344 -47.72097778320313 C -173.2446746826172 -43.19710540771484 -177.3517913818359 -38.21923065185547 -180.9280395507813 -32.92568969726563 C -184.5384216308594 -27.58160400390625 -187.6392974853516 -21.8686466217041 -190.1445465087891 -15.94552135467529 C -192.696044921875 -9.913104057312012 -194.6556701660156 -3.600271224975586 -195.9689178466797 2.817562103271484 C -197.3165893554688 9.403311729431152 -197.9998779296875 16.1818962097168 -197.9998779296875 22.96502113342285 C -197.9998779296875 30.60093688964844 -197.1358795166016 38.20939636230469 -195.4319152832031 45.57906341552734 C -193.7749176025391 52.74547958374023 -191.31201171875 59.74064636230469 -188.1115417480469 66.37026977539063 C -184.968505859375 72.88101959228516 -181.0996704101563 79.07080841064453 -176.6124572753906 84.76773071289063 C -172.1549682617188 90.42697906494141 -167.0734558105469 95.61776733398438 -161.5090942382813 100.1959381103516 L -161.4716644287109 100.2267303466797 L -161.4373321533203 100.2610168457031 L -30.05154609680176 231.6468505859375 M -30.05154609680176 233.0611114501953 L -162.1444702148438 100.968147277832 C -184.6509704589844 82.45052337646484 -198.9998779296875 54.38514709472656 -198.9998779296875 22.96502113342285 C -198.9998779296875 -32.79618835449219 -153.7964172363281 -78.00031280517578 -98.03459167480469 -78.00031280517578 C -72.05988311767578 -78.00031280517578 -48.37688064575195 -68.19223022460938 -30.48587989807129 -52.07672882080078 L -30.05154609680176 -52.51106262207031 L -29.93558883666992 -52.39510345458984 C -12.08733749389648 -68.31906127929688 11.4570369720459 -78.00031280517578 37.25845336914063 -78.00031280517578 C 93.01970672607422 -78.00031280517578 138.2237854003906 -32.79618835449219 138.2237854003906 22.96502113342285 C 138.2237854003906 48.76956176757813 128.5461578369141 72.30976867675781 112.6184539794922 90.158935546875 L 112.7345352172852 90.27501678466797 L 108.7493667602539 94.26014709472656 C 108.6825790405273 94.3271484375 108.6206207275391 94.38910675048828 108.5536193847656 94.45594024658203 L -30.05154609680176 233.0611114501953 Z"/></g></g></g></svg>